<?xml version="1.0" encoding="UTF-8"?>
<svg version="1.1" xmlns="http://www.w3.org/2000/svg" width="736" height="736">
<path d="M0 0 C242.88 0 485.76 0 736 0 C736 242.88 736 485.76 736 736 C493.12 736 250.24 736 0 736 C0 493.12 0 250.24 0 0 Z M203 45 C202.32501465 45.35078613 201.6500293 45.70157227 200.95458984 46.06298828 C181.81995427 56.06427373 163.54936839 68.12301036 147 82 C146.163479 82.69440186 146.163479 82.69440186 145.31005859 83.40283203 C132.24076829 94.28104019 119.57177132 105.67474921 108.34472656 118.46826172 C107.43206393 119.50784875 106.51456646 120.5432072 105.59277344 121.57470703 C59.44509056 173.22953394 32.72220444 237.89600645 23 306 C22.86577637 306.93392578 22.73155273 307.86785156 22.59326172 308.83007812 C18.98893031 335.41392328 19.35905209 364.45011849 23 391 C23.15065918 392.11358887 23.30131836 393.22717773 23.45654297 394.37451172 C32.40452806 458.12783107 58.22132216 517.26644919 99 567 C99.68787598 567.84449707 99.68787598 567.84449707 100.38964844 568.70605469 C107.50554237 577.37379298 115.22240477 585.42643709 123.125 593.375 C124.03096924 594.29023437 124.93693848 595.20546875 125.87036133 596.1484375 C131.94103283 602.19111332 138.30418246 607.66550707 145 613 C146.17372894 613.97668843 147.34479586 614.95659617 148.51171875 615.94140625 C164.35929068 629.11440742 181.84523155 640.29410222 200 650 C201.10472656 650.61746094 202.20945313 651.23492188 203.34765625 651.87109375 C207.91533671 654.79631846 207.91533671 654.79631846 213 656 C213.40089844 654.87207031 213.80179688 653.74414062 214.21484375 652.58203125 C225.88529801 620.11758375 225.88529801 620.11758375 233.57714844 608.34350586 C235.02245717 605.96301194 236.16133126 603.58601419 237.28515625 601.0390625 C240.14904997 594.64186253 243.15166411 588.31717061 246.1875 582 C246.75484863 580.81591553 247.32219727 579.63183105 247.90673828 578.41186523 C251.22098023 571.52552549 254.7041097 564.76449276 258.375 558.0625 C262.23016358 550.97550872 265.11128577 543.7878059 267.58154297 536.10961914 C269.27824052 530.8456619 271.33588458 525.88539581 273.66821289 520.87060547 C280.00828821 507.20486658 285.79193179 493.2699682 290.625 479 C290.95540283 478.0406958 291.28580566 477.0813916 291.6262207 476.09301758 C294.64981893 467.22142264 294.64981893 467.22142264 295 458 C292.14331167 455.33885539 289.05358231 454.08867171 285.4375 452.6875 C276.23592305 448.94202214 268.03519369 444.24470838 259.99609375 438.41796875 C256.32320488 435.808852 253.4155789 435.36379309 249 436 C237.64288121 439.24016781 227.3105524 445.38987407 217 451 C214.99877068 452.08216583 212.99746629 453.16419283 210.99609375 454.24609375 C207.14062406 456.33637865 203.28605216 458.42825238 199.4375 460.53125 C198.65246094 460.95986328 197.86742187 461.38847656 197.05859375 461.83007812 C195.32854719 462.81328295 193.6557075 463.896195 192 465 C189.35982365 465.81779841 186.69729409 466.3809489 184 467 C184.33 466.401875 184.66 465.80375 185 465.1875 C186.20787988 462.94613529 186.20787988 462.94613529 186 460 C186.70616455 459.73445313 187.4123291 459.46890625 188.13989258 459.1953125 C191.1495212 457.93751124 193.91551026 456.46793211 196.76171875 454.875 C198.42787231 453.9456665 198.42787231 453.9456665 200.12768555 452.99755859 C201.31434064 452.33179533 202.50094446 451.66594068 203.6875 451 C204.90455013 450.31954934 206.12175499 449.63937535 207.33911133 448.95947266 C209.16768803 447.93801991 210.99608437 446.91625424 212.82377625 445.89321899 C216.37647493 443.90471104 219.93466072 441.92668491 223.5 439.9609375 C224.30348877 439.5175 225.10697754 439.0740625 225.93481445 438.6171875 C227.37785812 437.82145691 228.82163921 437.02706126 230.26635742 436.234375 C234.94704769 433.64646819 239.48945334 430.87367279 244 428 C243.690625 427.38125 243.38125 426.7625 243.0625 426.125 C242.375 424.75 241.6875 423.375 241 422 C240.34 422 239.68 422 239 422 C238.71125 421.360625 238.4225 420.72125 238.125 420.0625 C237.17176549 417.84793921 237.17176549 417.84793921 235 417 C228.21893002 416.47031776 221.80224446 417.33515438 215.1875 418.75 C214.31077637 418.93119385 213.43405273 419.1123877 212.53076172 419.29907227 C206.78106708 420.52237776 201.23154232 422.08345599 195.64453125 423.9140625 C190.5804725 425.42296746 185.46011391 426.62481123 180.3125 427.8125 C179.33039551 428.04380615 178.34829102 428.2751123 177.33642578 428.51342773 C175.95753174 428.82582397 175.95753174 428.82582397 174.55078125 429.14453125 C173.72231689 429.33378174 172.89385254 429.52303223 172.0402832 429.71801758 C170 430 170 430 168 429 C168 427.68 168 426.36 168 425 C179.50118363 421.82572421 191.00484595 418.70943305 202.59375 415.87109375 C205.51678063 415.1235756 208.37601703 414.28903572 211.25 413.375 C216.72860083 411.66410588 222.33087845 410.82796449 228 410 C227.38188466 405.44684052 225.53234107 401.71540233 223.4375 397.6875 C223.10814453 397.04232422 222.77878906 396.39714844 222.43945312 395.73242188 C221.63175745 394.15214772 220.81662387 392.57567895 220 391 C208.01629686 390.69048429 196.13142192 391.64047604 184.1875 392.5 C182.12698217 392.64494476 180.06643544 392.78947924 178.00585938 392.93359375 C173.00356057 393.28433487 168.0016853 393.64062036 163 394 C163 392.02 163 390.04 163 388 C176.26801787 386.85632017 189.51739398 385.81203259 202.82861328 385.34204102 C207.62517814 385.16186036 212.26188078 384.7768461 217 384 C216.65066406 383.02160156 216.30132812 382.04320312 215.94140625 381.03515625 C213.49761144 374.05505062 211.19597457 367.46103166 211 360 C210.96132812 359.26136719 210.92265625 358.52273438 210.8828125 357.76171875 C210.63539443 349.36324996 211.74465132 340.69803658 213.55078125 332.5 C215.16843163 323.49742398 214.22299083 314.16592148 212.5625 305.25 C210.90989531 296.32323339 210.30045051 287.53068266 210.06738281 278.46191406 C210.00431799 276.15776324 209.90614207 273.85739887 209.8046875 271.5546875 C208.1870644 222.36180474 223.0738728 170.23124914 242.83837891 125.64697266 C244.01490919 122.96602661 245.1587722 120.27332553 246.29296875 117.57421875 C250.50214469 107.5651111 254.90447744 97.7344259 259.91699219 88.10107422 C261.125541 85.75644594 262.3007199 83.39634596 263.4765625 81.03515625 C264.33769746 79.33550951 265.19966457 77.63628411 266.0625 75.9375 C266.44978271 75.15165527 266.83706543 74.36581055 267.23608398 73.55615234 C270.20426229 67.79508429 274.03640947 61.98179527 280 59 C285.47604949 59.03876849 290.7318903 59.32468331 295 63 C300.67563042 68.80071318 303.2429559 75.99163241 306.03955078 83.44921875 C308.02846446 88.73141757 310.07543199 93.99109788 312.125 99.25 C312.82471924 101.04848389 312.82471924 101.04848389 313.53857422 102.88330078 C316.89185406 111.41163223 320.52563655 119.7782991 324.3125 128.125 C328.88918072 138.28868529 332.88461274 148.30301198 336 159 C336.18518188 159.63345337 336.37036377 160.26690674 336.56115723 160.91955566 C339.0196008 169.33445679 341.44296226 177.75934478 343.828125 186.1953125 C344.01746613 186.8624527 344.20680725 187.5295929 344.40188599 188.21694946 C346.33963735 195.09986559 348.16593232 201.7030314 348.5625 208.875 C348.68802508 213.09450843 348.68802508 213.09450843 350 217 C351.83324547 217.02749868 353.6666171 217.04661673 355.5 217.0625 C357.03140625 217.07990234 357.03140625 217.07990234 358.59375 217.09765625 C362.04212135 217.06591654 362.04212135 217.06591654 365.5859375 216.46875 C369.18629597 215.97626439 372.62855784 216.03214984 376.2578125 216.18359375 C377.37800781 216.22291016 378.49820312 216.26222656 379.65234375 216.30273438 C381.97646506 216.39292806 384.29968208 216.51034341 386.62109375 216.65429688 C392.63418501 216.9225403 392.63418501 216.9225403 397.99462891 214.61206055 C402.38331391 209.28116808 404.19507334 202.45398077 406.125 195.9375 C406.44597656 194.90689453 406.76695312 193.87628906 407.09765625 192.81445312 C408.83111642 187.17896717 410.39580377 181.51674639 411.87109375 175.80859375 C414.16437073 167.11120695 417.03431995 158.63460159 419.9375 150.125 C420.97158223 147.08732262 422.00187451 144.04840863 423.02734375 141.0078125 C423.27952667 140.26098206 423.53170959 139.51415161 423.79153442 138.74468994 C425.52105946 133.57032742 427.08297391 128.36239821 428.58203125 123.1171875 C430.56384662 116.22391237 432.92653293 109.60060065 435.75 103 C436.17901611 101.9881665 436.60803223 100.97633301 437.05004883 99.93383789 C450.19258249 69.41119082 450.19258249 69.41119082 461 65 C466.85607415 64.25591137 472.15250529 64.41706913 477 68 C493.05858074 82.51583499 498.9679476 110.61064914 504.10229492 130.94824219 C505.69563993 137.14777951 507.71356282 143.1216547 509.90136719 149.13330078 C512.73552581 156.94112992 514.85223963 164.80238306 516.40625 172.9609375 C517.03956135 176.20249164 517.72297612 179.43098746 518.4128418 182.66088867 C519.12092716 185.98648457 519.81420361 189.31509755 520.50634766 192.64404297 C520.81356925 194.11025878 521.12498866 195.5756093 521.44287109 197.03955078 C525.78388603 217.04931786 526.18178901 237.16959832 526.1875 257.5625 C526.18899551 258.98338928 526.18899551 258.98338928 526.19052124 260.4329834 C526.18717518 288.54111032 526.18717518 288.54111032 523.9375 299.75 C522.1553635 309.0007849 522.91093321 316.3383323 525.49755859 325.39941406 C528.20934454 335.04725413 528.09586707 344.67176764 528.1875 354.625 C528.20071289 355.59115234 528.21392578 356.55730469 528.22753906 357.55273438 C528.23408671 363.94760386 527.44421043 369.78155673 526 376 C525.66198281 377.66572305 525.32742048 379.33216166 525 381 C527.87509855 380.85593856 530.75007681 380.70999464 533.625 380.5625 C534.50091797 380.51810791 535.37683594 380.47371582 536.27929688 380.42797852 C541.03039093 380.18041693 545.76071764 379.85957349 550.5 379.4375 C557.70331448 378.89596204 564.90363298 378.89063682 572.125 378.875 C573.32447266 378.87040771 574.52394531 378.86581543 575.75976562 378.86108398 C577.46036133 378.86410522 577.46036133 378.86410522 579.1953125 378.8671875 C580.72696045 378.86887939 580.72696045 378.86887939 582.28955078 378.87060547 C584.6910121 378.98524918 586.70670377 379.31125878 589 380 C589 381.32 589 382.64 589 384 C588.46310547 383.83991455 587.92621094 383.6798291 587.37304688 383.51489258 C572.59386535 380.3081751 554.27296779 382.69805337 539.4375 384.8125 C538.261875 384.9777417 537.08625 385.1429834 535.875 385.31323242 C530.5372377 386.14824014 526.51185287 386.87565152 522 390 C520.61874495 391.8906423 520.61874495 391.8906423 519.75 394 C519.43546875 394.680625 519.1209375 395.36125 518.796875 396.0625 C517.08649281 400.22107631 516.91548893 403.5209133 517 408 C519.95801812 408.29517378 522.9163258 408.58651669 525.875 408.875 C526.80594482 408.96668457 527.73688965 409.05836914 528.69604492 409.15283203 C534.0011381 409.66232372 539.30208188 410.10082408 544.62109375 410.4375 C560.74686158 411.47183668 574.86496344 413.31766739 589.7421875 420.046875 C591.89863369 421.1296373 591.89863369 421.1296373 594 421 C593.67 421.66 593.34 422.32 593 423 C587.16097317 422.6926828 582.33258908 421.52161304 576.8125 419.5625 C564.77952575 415.34675378 552.35016367 414.53044357 539.68994141 414.10986328 C537.75358518 414.03077812 535.81827918 413.92425579 533.88427734 413.80029297 C520.83484271 412.37556014 520.83484271 412.37556014 508.8046875 416.0546875 C506.80625348 418.61541854 505.41095114 421.08433198 504 424 C502.453125 425.70703125 502.453125 425.70703125 501 427 C500.34 427.66 499.68 428.32 499 429 C499 429.66 499 430.32 499 431 C501.76978292 431.98221492 504.54068204 432.96105217 507.3125 433.9375 C508.19389648 434.24888916 509.07529297 434.56027832 509.98339844 434.88110352 C515.22686419 436.72065445 520.48545521 438.49193111 525.77734375 440.1875 C557.52849685 450.39760481 557.52849685 450.39760481 567 459 C567 459.66 567 460.32 567 461 C563.2077156 460.3940515 560.24238486 459.27018597 556.8125 457.5625 C549.99557948 454.34491351 543.03185634 451.58740892 536 448.875 C534.38121948 448.24573608 534.38121948 448.24573608 532.72973633 447.60375977 C522.87557122 443.83088606 512.87735685 440.45944138 502.5625 438.1875 C501.45003906 437.93355469 500.33757812 437.67960937 499.19140625 437.41796875 C494.61907549 436.81914453 491.30276026 437.03128083 487.5625 439.8125 C486.716875 440.534375 485.87125 441.25625 485 442 C483.28222544 442.99353469 481.56312916 443.98503118 479.83129883 444.95385742 C478.22370784 445.87220529 476.65658684 446.86065231 475.09765625 447.859375 C464.84218391 454.24759715 453.83577502 457.66562631 442.3215332 461.16552734 C439.77660272 461.97519921 439.77660272 461.97519921 437 464 C436.56909119 465.945118 436.56909119 465.945118 436.671875 468.17578125 C436.67703125 469.00400391 436.6821875 469.83222656 436.6875 470.68554688 C436.7184375 471.98588867 436.7184375 471.98588867 436.75 473.3125 C436.75515625 474.16779297 436.7603125 475.02308594 436.765625 475.90429688 C436.81743677 480.08485868 437.11840221 483.90637926 438 488 C438.12568017 490.37395876 438.22712911 492.74925012 438.3125 495.125 C438.6642073 502.00309575 439.78116205 508.4967273 441.28759766 515.20727539 C442.52654301 520.72852139 443.6164879 526.25572492 444.61010742 531.82641602 C449.93127329 561.64969448 455.48563706 591.87818003 465.63671875 620.4765625 C466.36613875 622.53650307 467.09496882 624.59664856 467.82284546 626.65713501 C468.31280058 628.04347129 468.80401579 629.42936293 469.29653931 630.81478882 C473.62131302 643.04247535 476.51372415 655.26254041 478.48852539 668.09936523 C478.65731201 668.72657471 478.82609863 669.35378418 479 670 C480.92787717 671.24451918 480.92787717 671.24451918 482.84985352 670.4777832 C483.60194092 670.17187256 484.35402832 669.86596191 485.12890625 669.55078125 C485.98613281 669.20370117 486.84335937 668.85662109 487.7265625 668.49902344 C488.66242188 668.1074707 489.59828125 667.71591797 490.5625 667.3125 C492.02623047 666.70390137 492.02623047 666.70390137 493.51953125 666.08300781 C519.62476552 655.07607369 544.28947141 641.99609697 567 625 C568.12148437 624.16251221 568.12148437 624.16251221 569.265625 623.30810547 C578.79913646 616.14397553 587.85622154 608.67588536 596.4765625 600.43798828 C598.03716191 598.96492249 599.6222615 597.52388761 601.21875 596.08984375 C606.17176595 591.64017691 610.95663725 587.1839884 615.2421875 582.0703125 C617.33886271 579.60089503 619.54388677 577.2470904 621.75 574.875 C664.61888711 527.78417704 691.03769755 467.43748323 702.25 405.1875 C702.40130371 404.35420166 702.55260742 403.52090332 702.70849609 402.66235352 C705.72520121 384.81266275 706.37350097 367.00832833 706.3125 348.9375 C706.31067719 347.8148172 706.30885437 346.6921344 706.30697632 345.53543091 C706.26137126 328.84056265 705.8027908 312.49408206 703 296 C702.74259033 294.4221875 702.74259033 294.4221875 702.47998047 292.8125 C691.919791 229.39474019 664.23632678 167.78266845 620.24609375 120.4296875 C618.37745905 118.40831222 616.586462 116.35347657 614.8125 114.25 C606.66042489 104.87511362 597.59741229 95.88897241 588 88 C587.4848584 87.56574707 586.9697168 87.13149414 586.43896484 86.68408203 C509.33138074 21.69431512 406.33349794 -6.41699291 203 45 Z M292 278 C290.74703125 278.47566406 290.74703125 278.47566406 289.46875 278.9609375 C276.49988276 284.60479639 267.34299155 297.20422023 262 310 C260.30756886 315.53569252 260.73333628 321.39240974 260.6875 327.125 C260.65849609 328.3109375 260.62949219 329.496875 260.59960938 330.71875 C260.53057787 340.34067977 262.18071342 348.25522661 268.4375 355.8125 C269.04207031 356.5446875 269.64664062 357.276875 270.26953125 358.03125 C278.16275048 367.01134592 286.59136257 373.02542016 298.73876953 374.28369141 C312.82609822 375.11071335 331.12498369 375.64098357 342.3984375 365.68359375 C353.03607275 354.50110401 355.43616719 341.85798267 355.20703125 326.83984375 C354.66592642 310.13198711 349.6596759 295.62069685 337.49462891 283.85913086 C327.64135575 274.84274932 317.97361774 274.46866485 305.29345703 274.86376953 C300.5617386 275.14483179 296.38206834 276.25001816 292 278 Z M431 286 C430.20529297 286.81017578 430.20529297 286.81017578 429.39453125 287.63671875 C416.79301353 300.90586655 412.78591765 317.20807386 413.02734375 335.03125 C413.4160486 348.08896738 416.71126752 357.52105456 426 367 C434.4079243 373.94348102 440.03082604 375.19365275 450.6875 375.25 C451.64333984 375.270625 452.59917969 375.29125 453.58398438 375.3125 C464.41009052 375.37153807 470.90099199 372.83192179 478.7109375 365.32421875 C479.46632813 364.55722656 480.22171875 363.79023438 481 363 C481.59039062 362.40832031 482.18078125 361.81664062 482.7890625 361.20703125 C491.68269613 351.60646777 493.55781591 341.13333078 493.33984375 328.50390625 C492.64065896 312.37623722 488.60296793 296.05564569 476.75 284.5625 C468.28006088 277.73236391 460.52426529 275.12267367 449.59765625 275.51171875 C441.83060727 276.56587849 436.08550866 280.08981426 431 286 Z M381 364 C380.67 365.65 380.34 367.3 380 369 C386.14208252 371.5165477 390.46882131 372.46388488 397 371 C397.99 370.34 398.98 369.68 400 369 C399.67 367.35 399.34 365.7 399 364 C393.06 364 387.12 364 381 364 Z " fill="#000000" transform="translate(0,0)"/>
<path d="M0 0 C4.30626609 2.79907296 6.88873503 6.79120508 8.5 11.625 C9.22500174 19.99223321 8.86509398 28.22859076 4.5 35.625 C1.73830203 37.48480472 0.48343497 37.62530118 -2.9375 37.6875 C-6.77771208 36.54217359 -8.37869924 35.31833103 -10.4921875 31.91015625 C-13.79051191 24.43139742 -14.46236488 16.28157385 -11.5 8.625 C-8.95446738 3.88504272 -5.95861457 -0.89379219 0 0 Z " fill="#000000" transform="translate(327.5,307.375)"/>
<path d="M0 0 C3.97575696 0.80862853 4.56094175 1.19247994 7 4.1875 C12.50140974 12.6083245 12.71704206 22.96381522 11.6875 32.75 C10.35546875 35.640625 10.35546875 35.640625 8.6875 37.75 C4.6283948 39.10303507 0.92739572 39.41056346 -3.3125 38.75 C-7.43038266 35.37122449 -8.6453406 30.8895983 -9.3125 25.75 C-9.95964906 16.66720616 -9.11953388 10.36406775 -5.0625 2.25 C-3.3125 0.75 -3.3125 0.75 0 0 Z " fill="#000000" transform="translate(443.3125,308.25)"/>
</svg>
